<svg width="778" height="899" viewBox="0 0 778 899" fill="none" xmlns="http://www.w3.org/2000/svg">
<path opacity="0.07" d="M330.7 2.10565L777.6 502.006L330.6 486.006C327.3 485.906 323.7 480.506 324.5 476.906L369.5 277.106L594.7 389.906L366.8 241.006L324.6 4.30565C323.8 -0.294354 327.4 -1.49435 330.7 2.10565Z" fill="url(#paint0_linear)"/>
<path opacity="0.4" d="M296.4 27.006L743.3 526.906L296.3 510.906C293 510.806 289.4 505.406 290.2 501.806L335.1 302.106L560.3 414.906L332.6 265.906L290.3 29.206C289.5 24.606 293.1 23.406 296.4 27.006Z" fill="url(#paint1_linear)"/>
<path opacity="0.3" d="M329.3 555.106L31.7002 383.306L31.8002 538.406L303.1 695.006L329.4 733.906L329.3 555.106Z" fill="url(#paint2_linear)"/>
<path d="M0 443.806V401.706L112.3 466.506V508.606L0 443.806Z" fill="#9796F0"/>
<path opacity="0.15" d="M252.8 548.705L187.6 511.105V524.705L252.8 562.305V548.705Z" fill="white"/>
<path opacity="0.15" d="M252.8 575.906L127.1 503.406V517.006L252.8 589.506V575.906Z" fill="white"/>
<path opacity="0.15" d="M252.9 603.206L100.6 515.306V528.906L252.9 616.806V603.206Z" fill="white"/>
<path d="M268.9 572.106C268.9 584.906 276.5 599.606 285.8 605.006C295.1 610.406 302.7 604.406 302.7 591.606C302.7 578.806 295.1 564.106 285.8 558.706C276.4 553.306 268.9 559.306 268.9 572.106Z" fill="#9796F0"/>
<path opacity="0.3" d="M355 427.006L652.6 598.806L652.7 753.906L381.3 597.206L355.1 605.806L355 427.006Z" fill="url(#paint3_linear)"/>
<path d="M566 626.106V584.006L678.3 648.806V690.906L566 626.106Z" fill="#E0ABFC"/>
<path opacity="0.15" d="M431.5 508.906L496.7 546.506V560.106L431.5 522.506V508.906Z" fill="white"/>
<path opacity="0.15" d="M431.5 536.206L549.2 604.106V617.706L431.5 549.806V536.206Z" fill="white"/>
<path opacity="0.15" d="M431.6 563.406L583.9 651.306V664.906L431.6 577.006V563.406Z" fill="white"/>
<path d="M415.5 513.806C415.5 526.606 407.9 532.606 398.6 527.206C389.3 521.806 381.7 507.106 381.7 494.306C381.7 481.506 389.3 475.506 398.6 480.906C407.9 486.306 415.5 501.106 415.5 513.806Z" fill="#E0ABFC"/>
<path opacity="0.2" d="M693.3 806.205L515.6 703.605V796.205L693.3 898.805V806.205Z" fill="url(#paint4_linear)"/>
<path opacity="0.15" d="M561.1 752.206L614.5 783.106V794.206L561.1 763.306V752.206Z" fill="white"/>
<path opacity="0.15" d="M561.1 774.506L674.9 840.206V851.506L561.1 785.806V774.506Z" fill="white"/>
<path d="M551.7 755.506C551.7 763.106 547.2 766.706 541.6 763.506C536 760.306 531.5 751.506 531.5 743.906C531.5 736.306 536 732.706 541.6 735.906C547.2 739.106 551.7 747.906 551.7 755.506Z" fill="#E1A8FF"/>
<path opacity="0.2" d="M201.3 664.205L23.6001 561.605V654.205L201.3 756.805V664.205Z" fill="url(#paint5_linear)"/>
<path opacity="0.15" d="M69.1001 610.206L122.5 641.106V652.206L69.1001 621.306V610.206Z" fill="white"/>
<path opacity="0.15" d="M69.1001 632.506L182.9 698.206V709.506L69.1001 643.806V632.506Z" fill="white"/>
<path d="M59.7 613.506C59.7 621.106 55.2 624.706 49.6 621.506C44 618.306 39.5 609.506 39.5 601.906C39.5 594.306 44 590.706 49.6 593.906C55.2 597.106 59.7 605.906 59.7 613.506Z" fill="#9796F0"/>
<path opacity="0.2" d="M226.8 369.705L184 345.005V330.605L226.8 355.305C230.3 357.305 235.4 361.405 239.7 367.705C244.4 374.405 247.7 382.905 247.7 392.105C247.7 402.305 245.1 408.105 240.2 409.705C235.6 411.205 230.1 408.605 226.8 406.705L209.2 396.505L209.1 396.405C207.6 395.505 205.2 394.605 203.3 395.205C201.7 395.705 200 397.205 200 402.905C200 408.605 201.8 412.005 203.2 414.105C205 416.705 207.4 418.505 208.9 419.305L209.1 419.405L262.9 450.505V464.905L209.4 434.005C205.7 432.105 200.4 428.005 195.8 421.605C190.8 414.505 187.4 405.605 187.4 395.705C187.4 385.805 190.8 380.805 195.7 379.405C200.3 378.105 205.6 380.005 209.3 382.205L226.7 392.205C229.2 393.705 231.1 394.305 232.4 393.905C233.4 393.605 235.2 392.205 235.2 384.905C235.2 380.105 233.7 377.005 232.2 375.005C230.5 372.405 228.2 370.505 226.8 369.705Z" fill="white"/>
<path d="M191.8 341.906C191.8 354.806 184.2 360.906 174.9 355.606C165.6 350.206 158 335.406 158 322.406C158 309.506 165.6 303.406 174.9 308.706C184.2 314.106 191.8 329.006 191.8 341.906Z" fill="#9796F0"/>
<path d="M284.8 469.906C284.8 482.806 277.2 488.906 267.9 483.606C258.6 478.206 251 463.406 251 450.406C251 437.506 258.6 431.406 267.9 436.706C277.2 442.106 284.8 457.006 284.8 469.906Z" fill="#E0ABFC"/>
<path opacity="0.2" d="M403.6 676.605V760.905C403.6 761.805 404.5 762.805 405.1 762.505L424.8 750.405L444.9 786.005C446 787.905 447.9 788.105 447.9 786.305V702.305L403.6 676.605Z" fill="url(#paint6_linear)"/>
<defs>
<linearGradient id="paint0_linear" x1="610.238" y1="173.671" x2="406.593" y2="442.602" gradientUnits="userSpaceOnUse">
<stop stop-color="white"/>
<stop offset="1" stop-color="white" stop-opacity="0"/>
</linearGradient>
<linearGradient id="paint1_linear" x1="575.983" y1="198.581" x2="372.338" y2="467.512" gradientUnits="userSpaceOnUse">
<stop stop-color="white"/>
<stop offset="1" stop-color="white" stop-opacity="0"/>
</linearGradient>
<linearGradient id="paint2_linear" x1="264.425" y1="492.951" x2="110.774" y2="613.255" gradientUnits="userSpaceOnUse">
<stop stop-color="white"/>
<stop offset="1" stop-color="white" stop-opacity="0"/>
</linearGradient>
<linearGradient id="paint3_linear" x1="482.839" y1="432.002" x2="521.31" y2="744.034" gradientUnits="userSpaceOnUse">
<stop stop-color="white"/>
<stop offset="1" stop-color="white" stop-opacity="0"/>
</linearGradient>
<linearGradient id="paint4_linear" x1="624.482" y1="766.49" x2="584.398" y2="835.935" gradientUnits="userSpaceOnUse">
<stop stop-color="white"/>
<stop offset="1" stop-color="white" stop-opacity="0"/>
</linearGradient>
<linearGradient id="paint5_linear" x1="132.482" y1="624.488" x2="92.398" y2="693.934" gradientUnits="userSpaceOnUse">
<stop stop-color="white"/>
<stop offset="1" stop-color="white" stop-opacity="0"/>
</linearGradient>
<linearGradient id="paint6_linear" x1="444.907" y1="719.697" x2="394.486" y2="751.629" gradientUnits="userSpaceOnUse">
<stop stop-color="white"/>
<stop offset="1" stop-color="white" stop-opacity="0"/>
</linearGradient>
</defs>
</svg>
