<svg width="670" height="872" viewBox="0 0 670 872" fill="none" xmlns="http://www.w3.org/2000/svg">
<path opacity="0.07" d="M669.908 438.586C658.249 431.414 649.803 431.221 644.57 438.005C639.337 444.692 636.766 456.031 636.766 472.023V558.182C636.766 574.561 635.297 588.129 632.451 598.887C629.605 610.033 624.74 617.98 618.038 622.632C611.52 627.381 602.706 628.641 591.506 626.412C580.581 624.28 566.902 618.271 550.561 608.288L542.757 603.539V535.697L552.488 541.609C564.148 548.781 571.951 549.653 575.899 544.42C580.03 539.38 582.142 528.816 582.142 512.825V436.939C582.142 417.168 583.978 401.564 587.65 390.031C591.322 378.498 598.575 371.229 609.5 367.934C598.575 351.361 591.322 335.176 587.65 319.281C583.978 303.387 582.234 285.554 582.234 265.783V189.897C582.234 173.905 580.122 160.919 575.991 150.742C572.135 140.76 564.331 132.231 552.58 125.059L542.849 119.147V51.3052L550.652 56.0541C566.994 66.0366 580.673 76.6006 591.598 87.843C602.798 99.1823 611.611 111.297 618.13 123.993C624.923 136.883 629.697 150.645 632.543 165.28C635.389 179.527 636.858 194.936 636.858 211.219V297.378C636.858 313.369 639.429 327.907 644.662 340.894C649.895 353.978 658.341 364.057 670 371.132L669.908 438.586Z" fill="url(#paint0_linear)"/>
<path opacity="0.07" d="M373.834 189.025C385.493 196.196 393.939 196.39 399.172 189.606C404.405 182.919 406.976 171.579 406.976 155.588V69.4287C406.976 53.0497 408.445 39.4813 411.291 28.7235C414.137 17.578 418.819 9.53388 425.337 4.78494C432.131 0.132915 440.944 -1.12701 451.869 1.00517C463.069 3.23427 476.84 9.34005 493.182 19.3225L500.985 24.0715V91.9135L491.254 86.0015C479.594 78.8297 471.607 77.8605 467.476 82.9002C463.62 88.1337 461.6 98.6977 461.6 114.689V190.575C461.6 210.346 459.764 225.95 456.092 237.483C452.42 248.919 445.167 256.285 434.242 259.58C445.167 276.153 452.42 292.338 456.092 308.233C459.764 324.127 461.509 341.96 461.509 361.731V437.617C461.509 453.608 463.436 466.595 467.384 476.578C471.515 486.754 479.503 495.38 491.162 502.455L500.893 508.367V576.209L493.09 571.46C476.748 561.477 462.977 550.816 451.777 539.477C440.852 528.235 432.039 516.217 425.245 503.327C418.727 490.631 414.045 476.966 411.199 462.234C408.353 447.987 406.884 432.577 406.884 416.295V330.136C406.884 314.145 404.313 299.607 399.081 286.62C393.848 273.536 385.401 263.457 373.742 256.382L373.834 189.025Z" fill="url(#paint1_linear)"/>
<path opacity="0.4" d="M633.186 467.661C621.527 460.49 613.08 460.296 607.847 467.08C602.614 473.767 600.044 485.107 600.044 501.098V587.257C600.044 603.636 598.575 617.205 595.729 627.963C592.883 639.108 588.017 647.055 581.315 651.707C574.797 656.456 565.984 657.716 554.784 655.487C543.859 653.355 530.18 647.346 513.838 637.363L506.035 632.615V564.773L515.766 570.684C527.425 577.856 535.229 578.729 539.177 573.495C543.308 568.455 545.419 557.891 545.419 541.9V466.014C545.419 446.243 547.255 430.639 550.928 419.106C554.6 407.573 561.853 400.304 572.778 397.009C561.853 380.436 554.6 364.251 550.928 348.356C547.255 332.462 545.511 314.629 545.511 294.858V218.972C545.511 202.981 543.4 189.994 539.268 179.817C535.413 169.835 527.609 161.306 515.858 154.134L506.126 148.222V80.3804L513.93 85.1293C530.271 95.1118 543.95 105.676 554.875 116.918C566.076 128.257 574.889 140.372 581.407 153.068C588.201 165.958 592.975 179.72 595.821 194.355C598.667 208.602 600.136 224.012 600.136 240.294V326.453C600.136 342.444 602.706 356.982 607.939 369.969C613.172 383.053 621.618 393.132 633.278 400.207L633.186 467.661Z" fill="url(#paint2_linear)"/>
<path opacity="0.4" d="M337.112 218.1C348.771 225.272 357.217 225.465 362.45 218.681C367.683 211.994 370.254 200.655 370.254 184.663V98.5038C370.254 82.1248 371.722 68.5564 374.568 57.7986C377.414 46.6531 382.096 38.609 388.615 33.8601C395.408 29.2081 404.222 27.9481 415.147 30.0803C426.347 32.3094 440.118 38.4152 456.459 48.3977L464.263 53.1466V120.989L454.531 115.077C442.872 107.905 434.885 106.936 430.754 111.975C426.898 117.209 424.878 127.773 424.878 143.764V219.65C424.878 239.421 423.042 255.025 419.37 266.558C415.697 277.994 408.445 285.36 397.52 288.655C408.445 305.228 415.697 321.413 419.37 337.308C423.042 353.202 424.786 371.035 424.786 390.806V466.692C424.786 482.684 426.714 495.671 430.662 505.653C434.793 515.829 442.78 524.455 454.44 531.53L464.171 537.442V605.284L456.368 600.535C440.026 590.552 426.255 579.892 415.055 568.552C404.13 557.31 395.317 545.292 388.523 532.402C382.005 519.706 377.323 506.041 374.477 491.309C371.631 477.062 370.162 461.653 370.162 445.37V359.211C370.162 343.22 367.591 328.682 362.358 315.695C357.125 302.611 348.679 292.532 337.02 285.457L337.112 218.1Z" fill="url(#paint3_linear)"/>
<path opacity="0.15" d="M133.302 11.8599L290.199 107.517L290.107 504.199L133.211 408.542L133.302 11.8599Z" fill="url(#paint4_linear)"/>
<path d="M103.833 72.8208L228.597 148.901V185.439L103.833 109.359V72.8208Z" fill="#E1A8FF"/>
<path opacity="0.15" d="M152.674 231.377L272.572 304.453V361.246L152.674 288.171V231.377Z" fill="white"/>
<path opacity="0.15" d="M152.582 162.663L272.664 235.836V249.016L152.582 175.941V162.663Z" fill="white"/>
<path opacity="0.15" d="M152.582 188.443L256.414 251.73V264.911L152.582 201.624V188.443Z" fill="white"/>
<path opacity="0.2" d="M133.302 11.8599L290.199 107.517V160.725L133.302 65.0674V11.8599Z" fill="url(#paint5_linear)"/>
<path opacity="0.2" d="M172.504 62.6445C172.504 70.6886 168.005 74.4684 162.497 71.1732C156.988 67.7811 152.582 58.574 152.582 50.5299C152.582 42.4857 157.08 38.706 162.589 42.0012C168.005 45.3933 172.504 54.6004 172.504 62.6445Z" fill="white"/>
<path opacity="0.15" d="M326.095 379.661L482.991 475.318L482.899 872L326.003 776.343L326.095 379.661Z" fill="url(#paint6_linear)"/>
<path d="M385.861 495.089L510.625 571.072V607.513L385.769 531.53L385.861 495.089Z" fill="#9C69E2"/>
<path opacity="0.15" d="M345.466 532.79L465.456 605.962V662.659L345.466 589.486V532.79Z" fill="white"/>
<path opacity="0.15" d="M345.282 613.813L465.364 686.985V700.166L345.282 627.09V613.813Z" fill="white"/>
<path opacity="0.15" d="M345.282 637.654L449.115 700.941V714.122L345.282 650.835V637.654Z" fill="white"/>
<path opacity="0.2" d="M326.095 379.661L482.991 475.318V528.525L326.095 432.868V379.661Z" fill="url(#paint7_linear)"/>
<path opacity="0.2" d="M365.296 430.542C365.296 438.586 360.798 442.366 355.289 439.071C349.781 435.679 345.374 426.472 345.374 418.427C345.374 410.383 349.873 406.604 355.381 409.899C360.798 413.194 365.296 422.498 365.296 430.542Z" fill="white"/>
<path opacity="0.3" d="M298.92 434.613L25.7976 268.206L25.8894 418.524L274.959 570.297L299.104 607.998L298.92 434.613Z" fill="url(#paint8_linear)"/>
<path opacity="0.15" d="M228.689 428.41L168.832 391.969V405.15L228.689 441.591V428.41Z" fill="white"/>
<path opacity="0.15" d="M228.689 454.868L80.514 364.542V377.722L228.781 468.049L228.689 454.868Z" fill="white"/>
<path opacity="0.15" d="M228.781 481.327L49.8509 372.295V385.476L228.781 494.507V481.327Z" fill="white"/>
<path d="M243.47 451.186C243.47 463.591 250.447 477.838 258.985 483.071C267.523 488.305 274.5 482.49 274.5 470.084C274.5 457.679 267.523 443.432 258.985 438.199C250.355 432.965 243.47 438.78 243.47 451.186Z" fill="#9C69E2"/>
<path opacity="0.15" d="M52.7885 162.663L16.617 140.566V127.676L52.7885 149.773C55.7263 151.614 60.0412 155.2 63.7134 160.822C67.6611 166.83 70.5071 174.39 70.5071 182.628C70.5071 191.738 68.3037 196.875 64.1725 198.425C60.2248 199.782 55.6345 197.456 52.7885 195.712L37.9159 186.602L37.8241 186.505C36.5389 185.729 34.5191 184.954 32.9584 185.439C31.6731 185.826 30.1124 187.28 30.1124 192.32C30.1124 197.359 31.5813 200.461 32.8666 202.302C34.4273 204.628 36.4471 206.276 37.7323 206.954L37.9159 207.051L83.4517 234.769V247.659L38.1914 220.038C35.07 218.294 30.5715 214.708 26.7156 208.989C22.4925 202.69 19.5548 194.743 19.5548 185.826C19.5548 177.007 22.4925 172.452 26.6238 171.192C30.4797 170.029 34.9782 171.773 38.0996 173.712L52.8803 182.725C54.9919 183.985 56.6444 184.566 57.6542 184.179C58.4805 183.888 59.9494 182.628 59.9494 176.135C59.9494 171.87 58.6641 169.157 57.3788 167.218C55.9099 165.086 53.982 163.341 52.7885 162.663Z" fill="white"/>
<path d="M27.3582 141.923C27.3582 152.971 21.2072 158.108 13.6791 153.553C6.151 148.998 0 136.302 0 125.253C0 114.204 6.151 109.068 13.6791 113.623C21.2072 118.275 27.3582 130.971 27.3582 141.923Z" fill="#E1A8FF"/>
<path d="M99.8849 248.532C99.8849 259.58 93.7339 264.717 86.2058 260.162C78.6777 255.607 72.5267 242.91 72.5267 231.862C72.5267 220.813 78.6777 215.677 86.2058 220.232C93.7339 224.884 99.8849 237.58 99.8849 248.532Z" fill="#E1A8FF"/>
<path opacity="0.2" d="M197.475 585.513C202.983 588.905 207.39 596.949 207.39 603.733V633.293L225.935 644.535C231.443 647.927 235.85 655.972 235.85 662.756C235.85 669.443 231.351 672.157 225.935 668.862L207.39 657.619V687.179C207.39 693.866 202.891 696.58 197.475 693.285C191.967 689.893 187.56 681.848 187.56 675.064V645.505L169.015 634.262C163.507 630.87 159.1 622.826 159.1 616.042C159.1 609.354 163.598 606.641 169.015 609.936L187.56 621.178V591.619C187.56 584.834 191.967 582.121 197.475 585.513Z" fill="url(#paint9_linear)"/>
<defs>
<linearGradient id="paint0_linear" x1="727.667" y1="70.9004" x2="482.344" y2="473.658" gradientUnits="userSpaceOnUse">
<stop stop-color="white"/>
<stop offset="1" stop-color="white" stop-opacity="0"/>
</linearGradient>
<linearGradient id="paint1_linear" x1="618.796" y1="2.79504" x2="373.474" y2="405.553" gradientUnits="userSpaceOnUse">
<stop stop-color="white"/>
<stop offset="1" stop-color="white" stop-opacity="0"/>
</linearGradient>
<linearGradient id="paint2_linear" x1="690.944" y1="99.9756" x2="445.622" y2="502.733" gradientUnits="userSpaceOnUse">
<stop stop-color="white"/>
<stop offset="1" stop-color="white" stop-opacity="0"/>
</linearGradient>
<linearGradient id="paint3_linear" x1="582.074" y1="31.87" x2="336.752" y2="434.628" gradientUnits="userSpaceOnUse">
<stop stop-color="white"/>
<stop offset="1" stop-color="white" stop-opacity="0"/>
</linearGradient>
<linearGradient id="paint4_linear" x1="293.045" y1="109.216" x2="130.646" y2="375.737" gradientUnits="userSpaceOnUse">
<stop stop-color="white"/>
<stop offset="1" stop-color="white" stop-opacity="0"/>
</linearGradient>
<linearGradient id="paint5_linear" x1="187.134" y1="12.6698" x2="239.685" y2="153.814" gradientUnits="userSpaceOnUse">
<stop stop-color="white"/>
<stop offset="1" stop-color="white" stop-opacity="0"/>
</linearGradient>
<linearGradient id="paint6_linear" x1="485.831" y1="477.041" x2="323.431" y2="743.562" gradientUnits="userSpaceOnUse">
<stop stop-color="white"/>
<stop offset="1" stop-color="white" stop-opacity="0"/>
</linearGradient>
<linearGradient id="paint7_linear" x1="379.92" y1="380.495" x2="432.47" y2="521.639" gradientUnits="userSpaceOnUse">
<stop stop-color="white"/>
<stop offset="1" stop-color="white" stop-opacity="0"/>
</linearGradient>
<linearGradient id="paint8_linear" x1="239.368" y1="374.458" x2="92.5779" y2="483.329" gradientUnits="userSpaceOnUse">
<stop stop-color="white"/>
<stop offset="1" stop-color="white" stop-opacity="0"/>
</linearGradient>
<linearGradient id="paint9_linear" x1="216.625" y1="623.274" x2="166.573" y2="660.667" gradientUnits="userSpaceOnUse">
<stop stop-color="white"/>
<stop offset="1" stop-color="white" stop-opacity="0"/>
</linearGradient>
</defs>
</svg>
