<svg width="381" height="498" viewBox="0 0 381 498" fill="none" xmlns="http://www.w3.org/2000/svg">
<path opacity="0.07" d="M343.894 237.669C357.937 225.416 366.579 202.612 366.579 171.841C366.579 108.65 330.175 36.0074 285.345 10.1815C240.461 -15.6994 204.705 14.6323 205.137 78.3179C205.353 108.595 213.887 141.069 227.66 169.313C238.301 191.073 245.268 215.36 247.591 237.944C248.509 247.615 254.18 257.616 260.716 261.462L310.839 290.859C317.428 294.761 323.045 291.244 324.071 282.727C326.34 262.891 333.199 247.065 343.894 237.669Z" fill="url(#paint0_linear)"/>
<path opacity="0.07" d="M323.099 342.072V328.554C323.099 321.301 318.994 313.114 313.863 309.982L257.583 276.902C252.452 273.88 248.347 277.287 248.347 284.54V298.058C248.347 308.938 253.964 321.026 261.309 326.961L310.244 355.699C317.482 358.501 323.099 352.842 323.099 342.072Z" fill="url(#paint1_linear)"/>
<path opacity="0.4" d="M316.834 259.539C330.877 247.285 339.519 224.482 339.519 193.71C339.519 130.519 303.115 57.877 258.285 32.0511C213.347 6.17024 177.645 36.5019 178.077 100.187C178.293 130.464 186.827 162.939 200.6 191.183C211.241 212.942 218.208 237.23 220.531 259.814C221.449 269.484 227.12 279.485 233.655 283.332L283.779 312.729C290.368 316.63 295.985 313.114 297.011 304.597C299.334 284.76 306.193 268.88 316.834 259.539Z" fill="url(#paint2_linear)"/>
<path opacity="0.4" d="M296.093 363.941V350.424C296.093 343.171 291.988 334.983 286.857 331.851L230.577 298.772C225.446 295.75 221.341 299.157 221.341 306.41V319.927C221.341 330.807 226.958 342.896 234.303 348.83L283.238 377.568C290.476 380.371 296.093 374.711 296.093 363.941Z" fill="url(#paint3_linear)"/>
<path opacity="0.3" d="M177.861 368.667L17.1219 274.265L17.1759 359.49L163.71 445.54L177.915 466.915L177.861 368.667Z" fill="url(#paint4_linear)"/>
<path d="M0 307.509V284.375L60.7094 319.982V343.116L0 307.509Z" fill="#9796F0"/>
<path opacity="0.15" d="M136.542 365.15L101.326 344.489V351.962L136.542 372.623V365.15Z" fill="white"/>
<path opacity="0.15" d="M136.542 380.151L68.6492 340.313V347.786L136.542 387.624V380.151Z" fill="white"/>
<path opacity="0.15" d="M136.542 395.097L54.282 346.797V354.27L136.542 402.57V395.097Z" fill="white"/>
<path d="M145.238 378.063C145.238 385.097 149.343 393.174 154.366 396.141C159.389 399.108 163.494 395.812 163.494 388.778C163.494 381.745 159.389 373.667 154.366 370.7C149.289 367.733 145.238 371.03 145.238 378.063Z" fill="#9796F0"/>
<path opacity="0.3" d="M190.392 317.4L351.077 411.802L351.131 497.027L204.597 410.977L190.446 415.703L190.392 317.4Z" fill="url(#paint5_linear)"/>
<path d="M304.357 426.803V403.669L365.012 439.276V462.409L304.357 426.803Z" fill="#9796F0"/>
<path opacity="0.15" d="M231.711 362.458L266.927 383.118V390.591L231.711 369.931V362.458Z" fill="white"/>
<path opacity="0.15" d="M231.711 377.404L295.283 414.714V422.187L231.711 384.932V377.404Z" fill="white"/>
<path opacity="0.15" d="M231.711 392.405L313.971 440.705V448.178L231.711 399.878V392.405Z" fill="white"/>
<path d="M223.015 365.15C223.015 372.184 218.91 375.481 213.887 372.513C208.864 369.546 204.759 361.469 204.759 354.435C204.759 347.402 208.864 344.105 213.887 347.072C218.964 350.039 223.015 358.117 223.015 365.15Z" fill="#E1A8FF"/>
<path opacity="0.15" d="M369.711 310.256L373.762 319.378L339.627 327.455L375.113 377.733L371.062 382.074L327.474 320.257L369.711 310.256Z" fill="black"/>
<path d="M381 320.477C381 327.565 376.895 330.917 371.872 328.005C366.849 325.037 362.744 316.905 362.744 309.762C362.744 302.673 366.849 299.321 371.872 302.234C376.895 305.201 381 313.388 381 320.477Z" fill="#9796F0"/>
<path d="M381 383.448C381 390.537 376.895 393.888 371.872 390.976C366.849 388.009 362.744 379.876 362.744 372.733C362.744 365.645 366.849 362.293 371.872 365.205C376.895 368.227 381 376.36 381 383.448Z" fill="#9796F0"/>
<path d="M342.057 328.279C342.057 335.368 337.952 338.72 332.929 335.807C327.906 332.84 323.801 324.708 323.801 317.564C323.801 310.476 327.906 307.124 332.929 310.037C337.952 313.004 342.057 321.191 342.057 328.279Z" fill="#E1A8FF"/>
<path opacity="0.3" d="M87.3911 140.08L177.915 193.215V363.831L87.3911 310.696V140.08Z" fill="url(#paint6_linear)"/>
<path opacity="0.15" d="M96.3031 241.351L169.003 284.046V291.519L96.3031 248.824V241.351Z" fill="white"/>
<path opacity="0.15" d="M101.38 258.934L163.872 295.64V303.113L101.38 266.407V258.934Z" fill="white"/>
<path d="M127.792 289.431L64.8143 252.45V271.517L127.792 308.498V289.431Z" fill="#E1A8FF"/>
<path d="M142.969 207.173C142.969 215.415 138.27 219.316 132.491 215.909C126.712 212.448 122.013 202.996 122.013 194.699C122.013 186.457 126.712 182.556 132.491 185.962C138.27 189.424 142.969 198.93 142.969 207.173Z" fill="#E1A8FF"/>
<path d="M132.437 222.558C123.093 217.008 115.369 222.229 114.019 234.152C113.803 236.24 115.315 238.988 117.206 240.087L147.669 258.22C149.559 259.319 151.071 258.44 150.855 256.077C149.559 242.45 141.781 228.108 132.437 222.558Z" fill="#E1A8FF"/>
<path opacity="0.2" d="M220.369 486.806C187.691 444.056 211.349 428.561 220.369 453.617C229.389 439.221 253.046 482.411 220.369 486.806Z" fill="url(#paint7_linear)"/>
<defs>
<linearGradient id="paint0_linear" x1="349.223" y1="81.3497" x2="181.35" y2="231.592" gradientUnits="userSpaceOnUse">
<stop/>
<stop offset="1" stop-color="white" stop-opacity="0"/>
</linearGradient>
<linearGradient id="paint1_linear" x1="434.766" y1="176.903" x2="266.893" y2="327.146" gradientUnits="userSpaceOnUse">
<stop/>
<stop offset="1" stop-color="white" stop-opacity="0"/>
</linearGradient>
<linearGradient id="paint2_linear" x1="322.207" y1="103.208" x2="166.036" y2="246.815" gradientUnits="userSpaceOnUse">
<stop/>
<stop offset="1" stop-color="white"/>
</linearGradient>
<linearGradient id="paint3_linear" x1="276.5" y1="313.029" x2="244.583" y2="337.908" gradientUnits="userSpaceOnUse">
<stop/>
<stop offset="1" stop-color="white" stop-opacity="0"/>
</linearGradient>
<linearGradient id="paint4_linear" x1="142.812" y1="334.531" x2="-35.6207" y2="463.598" gradientUnits="userSpaceOnUse">
<stop/>
<stop offset="1" stop-color="white" stop-opacity="0"/>
</linearGradient>
<linearGradient id="paint5_linear" x1="259.413" y1="320.176" x2="325.551" y2="572.732" gradientUnits="userSpaceOnUse">
<stop/>
<stop offset="1" stop-color="white" stop-opacity="0"/>
</linearGradient>
<linearGradient id="paint6_linear" x1="187.594" y1="155.118" x2="16.0475" y2="460.983" gradientUnits="userSpaceOnUse">
<stop/>
<stop offset="1" stop-color="white" stop-opacity="0"/>
</linearGradient>
<linearGradient id="paint7_linear" x1="227.267" y1="455.266" x2="202.736" y2="476.097" gradientUnits="userSpaceOnUse">
<stop stop-color="white"/>
<stop offset="1" stop-color="white" stop-opacity="0"/>
</linearGradient>
</defs>
</svg>
