<svg width="820" height="874" viewBox="0 0 820 874" fill="none" xmlns="http://www.w3.org/2000/svg">
<path d="M440.677 431.751C457.725 450.179 476.656 470.408 489.938 484.552C504.707 446.151 484.982 392.493 462.978 352.378C457.725 377.321 450.39 403.721 440.677 431.751Z" fill="#9796F0"/>
<path d="M336.802 289.634C314.897 307.806 295.272 341.749 310.04 394.807C323.322 393.864 342.154 392.578 359.203 391.207C349.489 353.492 342.154 319.806 336.802 289.634Z" fill="#E1A8FF"/>
<path opacity="0.2" d="M383.981 478.637C261.472 71.8299 362.275 37.2865 400.336 23.4005C438.397 75.3443 539.1 210.433 416.492 494.838L383.981 478.637Z" fill="url(#paint0_linear)"/>
<path opacity="0.1" d="M420.061 455.237C297.551 48.5151 398.255 13.886 436.415 0C474.476 51.9438 575.18 187.032 452.571 471.437L420.061 455.237Z" fill="url(#paint1_linear)"/>
<path opacity="0.15" d="M416.492 494.838C539.101 210.433 438.397 75.3443 400.336 23.4005V486.78L416.492 494.838Z" fill="url(#paint2_linear)"/>
<path opacity="0.1" d="M436.812 166.632C436.812 191.404 419.962 203.061 399.147 192.689C378.332 182.318 361.482 153.774 361.482 129.002C361.482 104.231 378.332 92.5732 399.147 102.945C419.962 113.316 436.812 141.86 436.812 166.632Z" fill="white"/>
<path opacity="0.1" d="M429.378 586.897C420.754 574.725 416.591 559.296 412.924 545.753C408.662 530.153 405.094 516.867 396.173 513.524C385.964 509.667 381.405 519.438 374.962 532.981C371.196 540.953 366.735 550.382 360.194 559.039C353.156 552.61 345.722 547.296 337.892 543.439C305.084 527.067 277.728 541.21 271.285 574.982C266.825 572.068 262.364 569.411 257.805 567.096C205.174 540.867 162.553 570.611 162.553 633.697C162.553 696.699 205.174 769.043 257.706 795.272C308.752 820.729 350.48 793.386 352.859 734.156C362.473 749.585 375.259 762.528 389.433 769.557C393.101 771.357 396.669 772.728 400.039 773.586C420.457 812.415 450.886 845.844 484.884 862.816C546.337 893.502 596.193 858.873 596.292 785.5C596.292 712.127 546.436 627.697 484.983 597.011C464.664 586.897 445.732 583.811 429.378 586.897Z" fill="url(#paint3_linear)"/>
<path opacity="0.3" d="M528.396 306.263L796.707 440.237L796.806 561.182L552.184 439.037L528.495 445.723L528.396 306.263Z" fill="url(#paint4_linear)"/>
<path d="M718.702 461.494V428.665L820 479.237V512.067L718.702 461.494Z" fill="#9796F0"/>
<path opacity="0.1" d="M597.382 370.121L656.159 399.436V410.064L597.382 380.75V370.121Z" fill="white"/>
<path opacity="0.1" d="M597.481 391.378L703.537 444.351V454.98L597.481 402.007V391.378Z" fill="white"/>
<path opacity="0.15" d="M597.481 412.636L734.759 481.209V491.838L597.481 423.265V412.636Z" fill="white"/>
<path d="M582.911 373.978C582.911 383.921 576.072 388.636 567.647 384.436C559.222 380.236 552.383 368.75 552.383 358.807C552.383 348.864 559.222 344.149 567.647 348.349C576.171 352.549 582.911 364.035 582.911 373.978Z" fill="#9796F0"/>
<path opacity="0.3" d="M296.956 135.433L28.6445 1.54517L28.7436 122.49L273.366 244.549L297.055 274.893L296.956 135.433Z" fill="url(#paint5_linear)"/>
<path d="M0 48.6866V15.8574L101.298 66.4298V99.2589L0 48.6866Z" fill="#E1A8FF"/>
<path opacity="0.15" d="M227.971 130.46L169.194 101.145V111.774L227.971 141.088V130.46Z" fill="white"/>
<path opacity="0.15" d="M227.971 151.717L114.679 95.1445V105.773L227.971 162.346V151.717Z" fill="white"/>
<path opacity="0.15" d="M227.971 172.974L90.6927 104.402V115.03L227.971 183.603V172.974Z" fill="white"/>
<path d="M242.441 148.717C242.441 158.66 249.28 170.146 257.705 174.346C266.131 178.546 272.97 173.832 272.97 163.889C272.97 153.946 266.131 142.46 257.705 138.26C249.28 134.145 242.441 138.774 242.441 148.717Z" fill="#E1A8FF"/>
<path opacity="0.2" d="M261.274 264.519L101 184.546V256.719L261.274 336.692V264.519Z" fill="url(#paint6_linear)"/>
<path opacity="0.15" d="M142.035 222.347L196.947 249.776V258.433L142.035 231.004V222.347Z" fill="white"/>
<path opacity="0.15" d="M142.035 239.747L244.721 291.005V299.748L142.035 248.49V239.747Z" fill="white"/>
<path d="M133.61 224.918C133.61 230.833 129.546 233.661 124.491 231.176C119.436 228.69 115.372 221.832 115.372 215.832C115.372 209.918 119.436 207.089 124.491 209.575C129.447 212.147 133.61 219.004 133.61 224.918Z" fill="#E1A8FF"/>
<path opacity="0.2" d="M737.237 319.035L576.964 239.062V311.234L737.237 391.293V319.035Z" fill="url(#paint7_linear)"/>
<path opacity="0.15" d="M617.999 276.948L672.91 304.377V313.034L617.999 285.605V276.948Z" fill="white"/>
<path opacity="0.15" d="M618.097 294.348L720.783 345.606V354.349L618.097 303.091V294.348Z" fill="white"/>
<path d="M609.573 279.519C609.573 285.434 605.509 288.262 600.454 285.776C595.399 283.291 591.336 276.433 591.336 270.433C591.336 264.519 595.399 261.69 600.454 264.176C605.509 266.748 609.573 273.605 609.573 279.519Z" fill="#9796F0"/>
<defs>
<linearGradient id="paint0_linear" x1="543.159" y1="37.8237" x2="297.242" y2="530.492" gradientUnits="userSpaceOnUse">
<stop stop-color="white"/>
<stop offset="1" stop-color="white" stop-opacity="0"/>
</linearGradient>
<linearGradient id="paint1_linear" x1="579.229" y1="14.4297" x2="333.312" y2="507.097" gradientUnits="userSpaceOnUse">
<stop stop-color="white"/>
<stop offset="1" stop-color="white" stop-opacity="0"/>
</linearGradient>
<linearGradient id="paint2_linear" x1="485.702" y1="138.484" x2="296.625" y2="532.991" gradientUnits="userSpaceOnUse">
<stop stop-color="white" stop-opacity="0"/>
<stop offset="1" stop-color="white"/>
</linearGradient>
<linearGradient id="paint3_linear" x1="463.327" y1="586.227" x2="357.111" y2="799.022" gradientUnits="userSpaceOnUse">
<stop stop-color="white"/>
<stop offset="1" stop-color="white" stop-opacity="0"/>
</linearGradient>
<linearGradient id="paint4_linear" x1="643.68" y1="310.179" x2="669.723" y2="554.419" gradientUnits="userSpaceOnUse">
<stop stop-color="white"/>
<stop offset="1" stop-color="white" stop-opacity="0"/>
</linearGradient>
<linearGradient id="paint5_linear" x1="238.443" y1="87.0042" x2="115.631" y2="198.197" gradientUnits="userSpaceOnUse">
<stop stop-color="white"/>
<stop offset="1" stop-color="white" stop-opacity="0"/>
</linearGradient>
<linearGradient id="paint6_linear" x1="199.195" y1="233.513" x2="170.347" y2="291.307" gradientUnits="userSpaceOnUse">
<stop stop-color="white"/>
<stop offset="1" stop-color="white" stop-opacity="0"/>
</linearGradient>
<linearGradient id="paint7_linear" x1="675.22" y1="288.094" x2="646.372" y2="345.889" gradientUnits="userSpaceOnUse">
<stop stop-color="white"/>
<stop offset="1" stop-color="white" stop-opacity="0"/>
</linearGradient>
</defs>
</svg>
